<svg width="14" height="14" viewBox="0 0 14 14" fill="none" xmlns="http://www.w3.org/2000/svg">
<path d="M5.16383 10.8259C5.16383 10.8259 4.62833 11.1379 5.54402 11.2424C6.65352 11.3702 7.22095 11.3523 8.44245 11.1195C8.44245 11.1195 8.76314 11.3225 9.21245 11.4979C6.47152 12.6718 3.01002 11.4275 5.16339 10.8259H5.16383ZM4.82827 9.29469C4.82827 9.29469 4.2267 9.73875 5.14283 9.83194C6.33064 9.95487 7.26427 9.96669 8.88433 9.65475C8.88433 9.65475 9.10789 9.8805 9.46139 10.0052C6.1482 10.9734 2.45614 10.0804 4.82827 9.29469ZM7.65145 6.69506C8.32564 7.47206 7.47339 8.17162 7.47339 8.17162C7.47339 8.17162 9.18708 7.28481 8.40089 6.17794C7.66545 5.14325 7.1002 4.63094 10.1531 2.85994C10.1531 2.85994 5.36114 4.0565 7.65102 6.6955L7.65145 6.69506ZM11.2748 11.9608C11.2748 11.9608 11.6716 12.2863 10.8395 12.5396C9.25795 13.0178 4.25645 13.1613 2.86652 12.5576C2.36777 12.341 3.30402 12.0383 3.59802 11.9766C3.90558 11.9083 4.08102 11.9223 4.08102 11.9223C3.52495 11.5303 0.490015 12.6901 2.53883 13.0226C8.12833 13.9296 12.726 12.6149 11.2748 11.9608ZM5.42108 7.70656C5.42108 7.70656 2.87614 8.31031 4.51852 8.52906C5.2137 8.62225 6.59708 8.60213 7.88683 8.49275C8.93902 8.4035 9.99689 8.2145 9.99689 8.2145C9.99689 8.2145 9.62545 8.37375 9.35639 8.55881C6.77208 9.23781 1.7802 8.92106 3.21783 8.22631C4.43233 7.6405 5.42108 7.70656 5.42108 7.70656ZM9.98508 10.2585C12.6101 8.89131 11.3956 7.581 10.5503 7.75906C10.3425 7.79975 10.2493 7.83912 10.2493 7.83912C10.2493 7.83912 10.3246 7.71794 10.4729 7.66587C12.1498 7.07569 13.4396 9.40406 9.93258 10.3272C9.93258 10.325 9.97414 10.2904 9.98508 10.2585ZM8.40133 0C8.40133 0 9.85558 1.45381 7.02058 3.69119C4.74908 5.48669 6.50302 6.51 7.02058 7.679C5.69452 6.48244 4.72152 5.43025 5.37339 4.45025C6.33239 3.00781 8.98714 2.31044 8.40133 0ZM5.67833 13.9567C8.19877 14.1159 12.0698 13.8657 12.1638 12.6739C12.1638 12.6739 11.9858 13.125 10.0783 13.4846C7.92752 13.8902 5.27277 13.8421 3.6982 13.5826C3.6982 13.5826 4.02195 13.8491 5.67789 13.9567H5.67833Z" fill="black"/>
</svg>
