<svg width="14" height="14" viewBox="0 0 14 14" fill="none" xmlns="http://www.w3.org/2000/svg">
<g clip-path="url(#clip0_432_251)">
<path d="M0.875 0.875V13.125H13.125V0.875H0.875ZM7.54163 10.4287C7.54163 11.6209 6.84163 12.1651 5.82181 12.1651C4.90044 12.1651 4.36713 11.6896 4.09369 11.1125L5.03169 10.5464C5.21238 10.8662 5.37644 11.137 5.77281 11.137C6.14994 11.137 6.39056 10.9891 6.39056 10.4125V6.4995H7.54163V10.4287ZM10.2646 12.1651C9.19537 12.1651 8.50369 11.6568 8.16725 10.9891L9.10525 10.4479C9.35156 10.85 9.674 11.1479 10.2401 11.1479C10.7157 11.1479 11.0224 10.9099 11.0224 10.5792C11.0224 10.1854 10.7104 10.0459 10.1828 9.81356L9.89581 9.69062C9.06456 9.338 8.51506 8.89219 8.51506 7.95419C8.51506 7.09012 9.17394 6.43388 10.1994 6.43388C10.9322 6.43388 11.4573 6.68806 11.8348 7.35525L10.9379 7.92969C10.7411 7.57706 10.5276 7.4375 10.1968 7.4375C9.86081 7.4375 9.64731 7.651 9.64731 7.92969C9.64731 8.27444 9.86081 8.41356 10.3556 8.62969L10.6426 8.75263C11.6218 9.17088 12.1712 9.6005 12.1712 10.5626C12.1712 11.5964 11.3562 12.1647 10.2651 12.1647L10.2646 12.1651Z" fill="#000000"/>
</g>
<defs>
<clipPath id="clip0_432_251">
<rect width="14" height="14" fill="white"/>
</clipPath>
</defs>
</svg>
