<svg width="14" height="14" viewBox="0 0 14 14" fill="none" xmlns="http://www.w3.org/2000/svg">
<g clip-path="url(#clip0_501_251)">
<path d="M10.3902 13.1275C10.3381 13.1551 10.3425 13.1639 10.3924 13.1385C10.4077 13.1322 10.4218 13.1232 10.4339 13.1118C10.4339 13.1026 10.4339 13.1026 10.3902 13.1275ZM10.4952 13.0707C10.4703 13.0912 10.4702 13.0912 10.5 13.0777C10.511 13.0725 10.521 13.0656 10.5298 13.0571C10.5298 13.0453 10.5228 13.0479 10.4952 13.0707ZM10.5634 13.0295C10.5385 13.0501 10.5385 13.0501 10.5683 13.0365C10.5793 13.0313 10.5893 13.0242 10.598 13.0155C10.598 13.0046 10.591 13.0068 10.5634 13.0295ZM10.6326 12.9889C10.6076 13.0094 10.6076 13.0094 10.6365 12.9954C10.6527 12.9867 10.6662 12.9775 10.6662 12.9749C10.6662 12.9639 10.6592 12.9661 10.6326 12.9889ZM10.7258 12.9272C10.6781 12.9591 10.6614 12.9797 10.7052 12.9569C10.7345 12.939 10.7844 12.8996 10.7756 12.8996C10.7568 12.9066 10.7411 12.9184 10.7253 12.9272H10.7258ZM6.54194 0.00516876C6.51 0.00735626 6.41419 0.0161063 6.33019 0.0231063C4.34044 0.203356 2.47888 1.27436 1.29894 2.92417C0.646872 3.82903 0.223019 4.878 0.0634375 5.98186C0.007 6.36686 0 6.48061 0 7.00254C0 7.52404 0.007 7.63604 0.0634375 8.02104C0.4445 10.6509 2.31525 12.8585 4.851 13.6766C5.30731 13.8223 5.7855 13.9229 6.33019 13.9846C6.54194 14.0074 7.45763 14.0074 7.66938 13.9846C8.61088 13.8796 9.40581 13.6473 10.1924 13.2461C10.3132 13.1849 10.3359 13.1687 10.3197 13.1551C9.93601 12.6479 9.55553 12.1382 9.17831 11.626L8.05963 10.1154L6.65831 8.03942C6.19219 7.34435 5.72128 6.6525 5.24562 5.96392C5.24081 5.96392 5.23469 6.88661 5.23206 8.01186C5.22725 9.98279 5.22725 10.0629 5.20231 10.1084C5.1784 10.1633 5.13555 10.2079 5.08156 10.2339C5.03825 10.2545 4.99931 10.2589 4.79238 10.2589H4.55569L4.494 10.2204C4.45536 10.1956 4.42397 10.161 4.403 10.1202L4.37325 10.0585L4.37544 7.31492L4.38025 4.57136L4.42356 4.51667C4.45122 4.48305 4.48528 4.45524 4.52375 4.43486C4.58106 4.40729 4.60381 4.40292 4.8405 4.40292C5.11831 4.40292 5.16425 4.41386 5.23731 4.49392C5.80498 5.33824 6.36776 6.18584 6.92562 7.03667C7.83519 8.41567 9.07681 10.2974 9.68713 11.2205L10.7971 12.9L10.8518 12.8637C11.3852 12.5093 11.8686 12.0847 12.2889 11.6015C13.1707 10.5923 13.7429 9.35021 13.937 8.02411C13.9934 7.63911 14.0004 7.52492 14.0004 7.00342C14.0004 6.48148 13.9934 6.36992 13.937 5.98492C13.5559 3.35511 11.6852 1.14748 9.14944 0.328919C8.67553 0.178822 8.18775 0.076664 7.69344 0.0239813C7.56087 0.0104188 6.65613 -0.00576874 6.54238 0.00604376L6.54194 0.00516876ZM9.40625 4.23886C9.4388 4.25484 9.46783 4.27716 9.49164 4.3045C9.51546 4.33185 9.53358 4.36367 9.54494 4.39811C9.55675 4.43486 9.55894 5.19567 9.55675 6.90936L9.55194 9.36986L9.11925 8.70486L8.68394 8.03942V6.25311C8.68394 5.09504 8.68875 4.44579 8.69488 4.41386C8.71629 4.34063 8.76542 4.27863 8.83181 4.24104C8.88606 4.21348 8.90706 4.21129 9.12363 4.21129C9.32619 4.21129 9.36075 4.21348 9.40625 4.23886Z" fill="black"/>
</g>
<defs>
<clipPath id="clip0_501_251">
<rect width="14" height="14" fill="white"/>
</clipPath>
</defs>
</svg>
