<svg width="14" height="14" viewBox="0 0 14 14" fill="none" xmlns="http://www.w3.org/2000/svg">
<g clip-path="url(#clip0_501_253)">
<path d="M7 5.75127C6.31181 5.75127 5.75137 6.31171 5.75137 6.99989C5.75137 7.68808 6.31181 8.24852 7 8.24852C7.68819 8.24852 8.24863 7.68808 8.24863 6.99989C8.24863 6.31171 7.68819 5.75127 7 5.75127ZM3.50438 9.48139L3.22875 9.41314C1.17775 8.89339 0 8.01402 0 6.99771C0 5.98139 1.17819 5.10202 3.22875 4.58227L3.50438 4.51402L3.58181 4.78746C3.78987 5.50365 4.05588 6.20173 4.37719 6.87477L4.43625 6.99771L4.37719 7.12283C4.05521 7.79558 3.78918 8.49372 3.58181 9.21014L3.50438 9.48139ZM3.10144 5.22014C1.54263 5.65764 0.585812 6.32964 0.585812 6.99771C0.585812 7.66577 1.54306 8.33514 3.10144 8.77527C3.29247 8.1683 3.52309 7.5745 3.79181 6.99771C3.52272 6.42107 3.29209 5.82725 3.10144 5.22014ZM10.4956 9.48139L10.4182 9.20796C10.2105 8.49235 9.94447 7.79497 9.62281 7.12283L9.56375 6.99771L9.62281 6.87258C9.94479 6.19983 10.2108 5.5017 10.4182 4.78527L10.4956 4.51402L10.7713 4.58227C12.8223 5.10202 14 5.98139 14 6.99771C14 8.01402 12.8218 8.89339 10.7713 9.41314L10.4956 9.48139ZM10.2082 6.99771C10.4778 7.57412 10.7084 8.16798 10.8986 8.77527C12.4596 8.33558 13.4142 7.66577 13.4142 6.99771C13.4142 6.32964 12.4569 5.66027 10.8986 5.22014C10.7071 5.82696 10.4765 6.42072 10.2082 6.99771ZM3.09663 5.21796L3.01919 4.94452C2.44256 2.91189 2.618 1.45371 3.5 0.94533C4.36581 0.446143 5.75356 1.03633 7.20956 2.53127L7.40775 2.73427L7.20956 2.93727C6.69251 3.47523 6.22005 4.05434 5.79688 4.66889L5.71725 4.78046L5.58031 4.79183C4.8359 4.85059 4.09746 4.96954 3.37225 5.14752L3.09663 5.21796ZM4.20394 1.35133C4.04688 1.35133 3.90775 1.38327 3.79138 1.45152C3.21256 1.78664 3.11019 2.94864 3.50875 4.51621C4.13063 4.3771 4.76096 4.27889 5.39569 4.22221C5.76111 3.70175 6.1607 3.20614 6.59181 2.73864C5.68269 1.85227 4.82125 1.35133 4.20394 1.35133ZM9.79825 13.2273C9.79606 13.2273 9.79606 13.2273 9.79825 13.2273C8.96656 13.2273 7.89775 12.603 6.79044 11.4637L6.59225 11.2607L6.79044 11.0577C7.30749 10.5197 7.77995 9.94063 8.20312 9.32608L8.28056 9.21452L8.4175 9.20096C9.16287 9.14417 9.90219 9.02519 10.6277 8.84527L10.9034 8.77702L10.9808 9.05046C11.5574 11.0831 11.382 12.5391 10.5 13.047C10.2868 13.1696 10.0442 13.2322 9.79825 13.2273ZM7.40775 11.2563C8.31687 12.1427 9.17831 12.6441 9.79562 12.6441H9.79781C9.95269 12.6441 10.0918 12.61 10.2082 12.5439C10.787 12.2088 10.892 11.0468 10.4908 9.47921C9.86905 9.61846 9.23866 9.71595 8.60388 9.77102C8.23847 10.2922 7.83888 10.7881 7.40775 11.2563ZM10.9034 5.21796L10.6277 5.14752C9.90168 4.97013 9.16256 4.85119 8.4175 4.79183L8.28056 4.78046L8.20312 4.66889C7.77995 4.05434 7.30749 3.47523 6.79044 2.93727L6.59225 2.73427L6.79044 2.53127C8.24644 1.03633 9.63419 0.446143 10.5 0.94533C11.382 1.45327 11.5574 2.91189 10.9808 4.94452L10.9034 5.21796ZM8.60431 4.22221C9.23906 4.27873 9.8694 4.37694 10.4912 4.51621C10.8924 2.94864 10.7874 1.78621 10.2086 1.45152C9.632 1.11902 8.54744 1.62914 7.40819 2.73908C7.83814 3.20758 8.23766 3.70311 8.60431 4.22264V4.22221ZM4.20394 13.2273C3.95763 13.2316 3.71394 13.1704 3.5 13.0475C2.618 12.5395 2.44256 11.0831 3.01919 9.05089L3.09663 8.77746L3.37225 8.84571C4.04688 9.01677 4.78975 9.13489 5.58031 9.20139L5.71725 9.21496L5.79469 9.32652C6.21786 9.94107 6.69032 10.5202 7.20738 11.0581L7.40556 11.2611L7.20738 11.4641C6.10225 12.6034 5.03344 13.2277 4.20394 13.2277V13.2273ZM3.50919 9.47921C3.108 11.0468 3.213 12.2092 3.79181 12.5439C4.36844 12.872 5.45081 12.3663 6.59225 11.2563C6.16112 10.7881 5.76153 10.2917 5.39612 9.77058C4.76132 9.71568 4.13092 9.61862 3.50919 9.47921ZM7 9.84583C6.51919 9.84583 6.027 9.82527 5.53262 9.78414L5.39569 9.77277L5.31606 9.65902C5.03681 9.25778 4.77452 8.845 4.52988 8.42177C4.28472 7.99852 4.05746 7.56516 3.84869 7.12283L3.78962 6.99771L3.84869 6.87258C4.26695 5.98812 4.75775 5.13982 5.31606 4.33639L5.39569 4.22264L5.53262 4.21127C6.50915 4.12902 7.49085 4.12902 8.46738 4.21127L8.60431 4.22264L8.68394 4.33639C9.24297 5.13937 9.73381 5.98772 10.1513 6.87258L10.2104 6.99771L10.1513 7.12283C9.73464 8.00813 9.24377 8.85655 8.68394 9.65902L8.60431 9.77277L8.46738 9.78414C7.97931 9.82499 7.48977 9.84556 7 9.84583ZM5.71944 9.21233C6.58087 9.27839 7.41912 9.27839 8.28275 9.21233C8.7644 8.50704 9.19245 7.76661 9.56331 6.99727C9.19402 6.22666 8.76513 5.48606 8.28056 4.78221C7.42813 4.71614 6.57187 4.71614 5.71944 4.78221C5.23452 5.48584 4.80562 6.22647 4.43669 6.99727C4.80765 7.76699 5.23647 8.50747 5.71944 9.21233Z" fill="black"/>
</g>
<defs>
<clipPath id="clip0_501_253">
<rect width="14" height="14" fill="white"/>
</clipPath>
</defs>
</svg>
