<svg width="14" height="14" viewBox="0 0 14 14" fill="none" xmlns="http://www.w3.org/2000/svg">
<g clip-path="url(#clip0_501_247)">
<path d="M13.818 6.83173L13.2366 6.47167C13.233 6.41538 13.2277 6.35921 13.2208 6.30323L13.72 5.83817C13.7445 5.81462 13.7627 5.78528 13.7729 5.75286C13.7831 5.72043 13.785 5.68597 13.7784 5.65263C13.7717 5.61929 13.7568 5.58816 13.735 5.56209C13.7132 5.53603 13.6852 5.51587 13.6535 5.50348L13.0152 5.26592C13 5.21014 12.9835 5.15471 12.9658 5.09967L13.3617 4.54842C13.3821 4.52092 13.395 4.48862 13.3992 4.45466C13.4034 4.4207 13.3988 4.38622 13.3858 4.35457C13.3727 4.32293 13.3518 4.29518 13.3249 4.27403C13.2979 4.25288 13.266 4.23904 13.2322 4.23386L12.5598 4.12404C12.5348 4.07373 12.5073 4.02386 12.4806 3.97354L12.7628 3.35404C12.7771 3.32314 12.7833 3.28903 12.7805 3.25506C12.7777 3.22108 12.7662 3.18841 12.747 3.16023C12.7279 3.1321 12.702 3.10922 12.6717 3.0937C12.6415 3.07818 12.6078 3.07052 12.5738 3.07142L11.89 3.09636C11.8555 3.05113 11.8198 3.00692 11.7828 2.96379L11.9403 2.30054C11.948 2.26726 11.9471 2.23256 11.9377 2.19971C11.9283 2.16686 11.9107 2.13695 11.8865 2.11279C11.8624 2.08863 11.8325 2.07102 11.7996 2.06162C11.7668 2.05221 11.7321 2.05133 11.6988 2.05904L11.0355 2.21654C10.9926 2.17928 10.9484 2.14353 10.903 2.10936L10.9279 1.42554C10.9293 1.39149 10.9219 1.35764 10.9065 1.32724C10.8911 1.29684 10.8681 1.27092 10.8398 1.25195C10.8115 1.23298 10.7787 1.2216 10.7448 1.2189C10.7108 1.21621 10.6767 1.22228 10.6457 1.23654L10.0262 1.51873C9.97589 1.49204 9.92602 1.46448 9.87352 1.43954L9.76371 0.767107C9.75807 0.733538 9.74397 0.70196 9.72274 0.67535C9.70151 0.648741 9.67386 0.627977 9.64238 0.615019C9.61091 0.602061 9.57665 0.597335 9.54284 0.601287C9.50903 0.605239 9.47678 0.617739 9.44914 0.637607L8.89789 1.03354C8.84321 1.01561 8.78808 0.999857 8.73383 0.984107L8.49408 0.34842C8.48224 0.316617 8.46252 0.288343 8.43677 0.266247C8.41101 0.244151 8.38007 0.228958 8.34683 0.222093C8.3136 0.215228 8.27917 0.216915 8.24677 0.226997C8.21437 0.237078 8.18505 0.255224 8.16158 0.279732L7.69652 0.781545C7.63967 0.774007 7.58263 0.768025 7.52546 0.763607L7.16802 0.184357C7.15031 0.155203 7.12538 0.131103 7.09565 0.114378C7.06592 0.097653 7.03238 0.0888672 6.99827 0.0888672C6.96416 0.0888672 6.93062 0.097653 6.90089 0.114378C6.87116 0.131103 6.84623 0.155203 6.82852 0.184357L6.46846 0.763607C6.41115 0.767545 6.35471 0.774545 6.30002 0.781545L5.83496 0.279732C5.81142 0.254937 5.78195 0.236548 5.74934 0.226298C5.71672 0.216048 5.68203 0.214276 5.64854 0.221149C5.61505 0.228023 5.58387 0.243314 5.55792 0.265582C5.53198 0.287849 5.51214 0.316358 5.50027 0.34842L5.26271 0.984107C5.20627 0.999857 5.15377 1.01779 5.09646 1.03354L4.54521 0.637607C4.51757 0.617739 4.48532 0.605239 4.45151 0.601287C4.41771 0.597335 4.38345 0.602061 4.35197 0.615019C4.32049 0.627977 4.29284 0.648741 4.27161 0.67535C4.25038 0.70196 4.23629 0.733538 4.23065 0.767107L4.12083 1.43954C4.07052 1.46448 4.02108 1.49204 3.97077 1.51873L3.35083 1.23654C3.31987 1.22228 3.28577 1.21621 3.25179 1.2189C3.21781 1.2216 3.18509 1.23298 3.15676 1.25195C3.12844 1.27092 3.10546 1.29684 3.09004 1.32724C3.07461 1.35764 3.06724 1.39149 3.06865 1.42554L3.0914 2.10936C3.04808 2.14392 3.00433 2.17979 2.96146 2.21654L2.29646 2.05904C2.26326 2.05143 2.22867 2.05241 2.19596 2.06188C2.16324 2.07136 2.13348 2.08901 2.10949 2.11318C2.08549 2.13735 2.06805 2.16724 2.05882 2.20002C2.04958 2.23281 2.04886 2.2674 2.05671 2.30054L2.21202 2.96379C2.17527 3.00711 2.14158 3.04998 2.10483 3.09636L1.42365 3.07142C1.38963 3.07014 1.35585 3.07758 1.32552 3.09305C1.29519 3.10851 1.26933 3.13148 1.25038 3.15976C1.23144 3.18804 1.22005 3.22071 1.21729 3.25464C1.21454 3.28857 1.22051 3.32264 1.23465 3.35361L1.51771 3.97311L1.43546 4.12361L0.763458 4.23342C0.729978 4.23922 0.698511 4.2534 0.67199 4.27463C0.645469 4.29587 0.624757 4.32348 0.611784 4.35489C0.598812 4.38629 0.594002 4.42047 0.597803 4.45423C0.601604 4.488 0.613891 4.52025 0.63352 4.54798L1.03252 5.09923C1.01447 5.15425 0.997695 5.20969 0.982208 5.26548L0.343895 5.50304C0.312031 5.5152 0.283779 5.53526 0.261793 5.56133C0.239807 5.58741 0.224808 5.61864 0.218203 5.6521C0.211599 5.68556 0.213606 5.72015 0.224036 5.75262C0.234467 5.78509 0.252978 5.81438 0.277833 5.83773L0.776583 6.30279C0.769694 6.35878 0.764442 6.41495 0.760833 6.47123L0.179833 6.83129C0.150648 6.84872 0.126485 6.87342 0.109706 6.90299C0.0929271 6.93255 0.0841064 6.96596 0.0841064 6.99995C0.0841064 7.03394 0.0929271 7.06735 0.109706 7.09691C0.126485 7.12648 0.150648 7.15118 0.179833 7.16861L0.760833 7.52867C0.76477 7.58598 0.769583 7.64286 0.776583 7.69711L0.277833 8.16436C0.252806 8.18742 0.234123 8.21652 0.223577 8.24888C0.213031 8.28123 0.210976 8.31576 0.217608 8.34914C0.22424 8.38251 0.239336 8.41363 0.26145 8.4395C0.283564 8.46536 0.311953 8.48512 0.343895 8.49686L0.982208 8.73661C0.997958 8.79086 1.01371 8.84554 1.03252 8.90067L0.63352 9.45192C0.613628 9.47971 0.601172 9.51212 0.597339 9.54608C0.593505 9.58004 0.59842 9.61441 0.611617 9.64594C0.624814 9.67746 0.645853 9.70508 0.672736 9.72618C0.699619 9.74728 0.731452 9.76115 0.765208 9.76648L1.43765 9.87629C1.46258 9.92661 1.49015 9.97648 1.51771 10.0268L1.23465 10.6463C1.22051 10.6773 1.21454 10.7113 1.21729 10.7453C1.22005 10.7792 1.23144 10.8119 1.25038 10.8401C1.26933 10.8684 1.29519 10.8914 1.32552 10.9069C1.35585 10.9223 1.38963 10.9298 1.42365 10.9285L2.10483 10.9057C2.14158 10.9495 2.17527 10.9928 2.21465 11.0357L2.05715 11.7011C2.04949 11.7341 2.05038 11.7686 2.05972 11.8011C2.06907 11.8337 2.08656 11.8634 2.11055 11.8874C2.13455 11.9113 2.16425 11.9287 2.19685 11.938C2.22945 11.9473 2.26388 11.9481 2.2969 11.9404L2.9619 11.7851C3.00521 11.8219 3.04896 11.8555 3.09446 11.8923L3.06952 12.5735C3.06786 12.6076 3.07507 12.6416 3.09043 12.6722C3.10579 12.7027 3.12879 12.7287 3.15719 12.7478C3.18559 12.7668 3.21842 12.7781 3.25251 12.7807C3.28659 12.7833 3.32077 12.777 3.35171 12.7625L3.97165 12.4803C4.02196 12.507 4.0714 12.5345 4.12171 12.5621L4.23371 13.2345C4.23924 13.2679 4.25316 13.2992 4.27416 13.3257C4.29517 13.3522 4.32256 13.3729 4.35376 13.3858C4.38496 13.3988 4.41895 13.4036 4.45252 13.3998C4.48609 13.3959 4.51814 13.3837 4.54565 13.364L5.09908 12.9655C5.15377 12.9834 5.2089 12.9992 5.26315 13.0149L5.5029 13.6532C5.51439 13.6854 5.534 13.714 5.55984 13.7363C5.58568 13.7586 5.61685 13.7739 5.65033 13.7806C5.6838 13.7873 5.71844 13.7852 5.75087 13.7745C5.78331 13.7639 5.81242 13.745 5.8354 13.7197L6.30046 13.2205C6.3569 13.2275 6.41202 13.2345 6.4689 13.2385L6.82896 13.8195C6.84691 13.8483 6.87192 13.8721 6.90162 13.8886C6.93132 13.9051 6.96473 13.9138 6.99871 13.9138C7.03268 13.9138 7.0661 13.9051 7.0958 13.8886C7.1255 13.8721 7.15051 13.8483 7.16846 13.8195L7.52852 13.2385C7.58583 13.2345 7.64052 13.2275 7.69696 13.2205L8.16202 13.7197C8.18523 13.7445 8.21437 13.763 8.24671 13.7733C8.27904 13.7837 8.31348 13.7857 8.34677 13.779C8.38007 13.7723 8.41111 13.7573 8.43697 13.7353C8.46282 13.7133 8.48263 13.685 8.49452 13.6532L8.73427 13.0149C8.78852 12.9992 8.84321 12.9834 8.89833 12.9655L9.44958 13.364C9.47715 13.3842 9.50942 13.3969 9.54331 13.401C9.57719 13.405 9.61156 13.4004 9.64312 13.3874C9.67468 13.3744 9.70238 13.3535 9.72357 13.3267C9.74476 13.3 9.75873 13.2682 9.76415 13.2345L9.87396 12.5621C9.92646 12.5345 9.97677 12.5074 10.0266 12.4803L10.6461 12.7625C10.6771 12.7765 10.7112 12.7824 10.745 12.7796C10.7789 12.7767 10.8115 12.7653 10.8398 12.7464C10.868 12.7275 10.891 12.7017 10.9065 12.6714C10.922 12.6412 10.9295 12.6075 10.9283 12.5735L10.9034 11.8923C10.9493 11.8555 10.9926 11.8219 11.0333 11.7851L11.6988 11.9404C11.7318 11.948 11.7663 11.9471 11.7989 11.9378C11.8315 11.9285 11.8613 11.9111 11.8854 11.8872C11.9094 11.8633 11.9271 11.8337 11.9367 11.8012C11.9463 11.7687 11.9475 11.7342 11.9403 11.7011L11.7828 11.0357C11.8195 10.9924 11.8558 10.9495 11.89 10.9057L12.5738 10.9285C12.6078 10.9299 12.6417 10.9225 12.6721 10.9071C12.7025 10.8917 12.7284 10.8687 12.7474 10.8404C12.7663 10.812 12.7777 10.7793 12.7804 10.7453C12.7831 10.7114 12.777 10.6773 12.7628 10.6463L12.4806 10.0268C12.5073 9.97648 12.5348 9.92661 12.5598 9.87629L13.2322 9.76648C13.2658 9.76084 13.2974 9.74674 13.324 9.72552C13.3506 9.70429 13.3713 9.67663 13.3843 9.64516C13.3973 9.61368 13.402 9.57942 13.398 9.54561C13.3941 9.5118 13.3816 9.47956 13.3617 9.45192L12.9658 8.90067L13.0152 8.73661L13.6509 8.49686C13.6829 8.48531 13.7115 8.46573 13.7338 8.43999C13.7561 8.41425 13.7715 8.38321 13.7784 8.34985C13.7853 8.31648 13.7835 8.28191 13.7732 8.24943C13.7629 8.21695 13.7444 8.18766 13.7196 8.16436L13.2204 7.69711C13.2252 7.64286 13.2322 7.58554 13.2361 7.52867L13.8176 7.16861C13.8467 7.1511 13.8707 7.12636 13.8874 7.09681C13.9041 7.06726 13.9129 7.0339 13.9129 6.99995C13.9129 6.96601 13.9041 6.93264 13.8874 6.90309C13.8707 6.87354 13.8467 6.84881 13.8176 6.83129L13.818 6.83173ZM9.93258 11.6442C9.39708 11.5305 9.56815 10.7259 10.1058 10.8397C10.2125 10.8626 10.3057 10.9271 10.3649 11.0187C10.4241 11.1104 10.4445 11.2219 10.4215 11.3286C10.3985 11.4353 10.3341 11.5285 10.2424 11.5877C10.1507 11.6469 10.0393 11.6672 9.93258 11.6442ZM9.73658 10.3112C9.68842 10.3008 9.63868 10.3001 9.59024 10.309C9.54179 10.3179 9.49559 10.3364 9.45431 10.3633C9.41303 10.3901 9.37748 10.4249 9.34971 10.4656C9.32194 10.5063 9.3025 10.5521 9.29252 10.6004L9.08471 11.5594C8.43013 11.8573 7.71922 12.0113 7.00002 12.0109C6.26494 12.0114 5.53863 11.8512 4.87202 11.5414L4.66421 10.5802C4.65425 10.532 4.63479 10.4862 4.60696 10.4456C4.57913 10.405 4.54349 10.3703 4.50211 10.3436C4.46074 10.3169 4.41446 10.2986 4.36597 10.29C4.31749 10.2814 4.26776 10.2825 4.21971 10.2932L3.37227 10.473C3.21349 10.3113 3.06655 10.1383 2.93258 9.95548H7.0639C7.10983 9.95548 7.14133 9.94892 7.14133 9.90517V8.44523C7.14133 8.40148 7.10983 8.39492 7.0639 8.39492H5.85421V7.46742H7.1619C7.28046 7.46742 7.80021 7.50111 7.96383 8.16436C8.01633 8.36736 8.13052 9.03017 8.20752 9.24236C8.28496 9.48167 8.60171 9.95504 8.93902 9.95504H10.997C11.0221 9.95505 11.0471 9.95285 11.0718 9.94848C10.9301 10.1428 10.774 10.3263 10.605 10.4975L9.73658 10.3112ZM4.02371 11.6259C3.91686 11.6479 3.80565 11.627 3.71406 11.5677C3.62247 11.5085 3.55785 11.4156 3.53415 11.3091C3.52249 11.2563 3.52146 11.2016 3.53112 11.1484C3.54077 11.0951 3.56093 11.0443 3.5904 10.9989C3.61988 10.9535 3.65809 10.9144 3.70281 10.8839C3.74753 10.8534 3.79787 10.8321 3.8509 10.8213C3.95759 10.7984 4.06901 10.8188 4.16066 10.878C4.25231 10.9373 4.31667 11.0305 4.33958 11.1372C4.3625 11.2439 4.34209 11.3553 4.28286 11.4469C4.22362 11.5386 4.1304 11.6029 4.02371 11.6259ZM2.45658 5.27073C2.48047 5.32046 2.49417 5.37446 2.49687 5.42955C2.49956 5.48465 2.49121 5.53973 2.47229 5.59155C2.45337 5.64337 2.42428 5.69088 2.38672 5.73128C2.34915 5.77168 2.30389 5.80416 2.25358 5.82679C2.20309 5.84885 2.14871 5.86063 2.09362 5.86144C2.03852 5.86225 1.98382 5.85207 1.9327 5.8315C1.88159 5.81093 1.83508 5.78039 1.7959 5.74164C1.75673 5.7029 1.72566 5.65674 1.70452 5.60586C1.50371 5.11411 2.22602 4.79254 2.45658 5.27117V5.27073ZM1.97577 6.41217L2.85952 6.02017C3.04896 5.93617 3.13296 5.71523 3.04896 5.52623L2.86652 5.11367H3.58446V8.34242H2.1394C1.96097 7.71556 1.9057 7.06015 1.97577 6.41217ZM5.85596 6.10023V5.14779H7.56046C7.64927 5.14779 8.18214 5.25061 8.18214 5.64961C8.18214 5.98211 7.77221 6.10067 7.43708 6.10067L5.85596 6.10023ZM12.054 6.95686C12.054 7.08242 12.0492 7.20711 12.0405 7.33004H11.5207C11.4682 7.33004 11.4476 7.36461 11.4476 7.41711V7.65379C11.4476 8.21423 11.1331 8.33498 10.8548 8.36736C10.5906 8.39711 10.2988 8.25754 10.2629 8.09611C10.1076 7.22111 9.84814 7.03429 9.43821 6.71054C9.94614 6.38679 10.4746 5.91298 10.4746 5.27511C10.4746 4.58692 10.0026 4.15379 9.68189 3.94204C9.23039 3.64323 8.73164 3.58461 8.59689 3.58461H3.23533C3.97591 2.75572 4.96912 2.19415 6.06115 1.98686L6.69465 2.65229C6.72862 2.68773 6.76924 2.71613 6.81419 2.73586C6.85915 2.75559 6.90755 2.76627 6.95663 2.76729C7.00571 2.7683 7.05451 2.75963 7.10024 2.74178C7.14597 2.72393 7.18774 2.69724 7.22315 2.66323L7.92971 1.98642C8.65086 2.12119 9.33402 2.41137 9.93171 2.83681C10.5294 3.26224 11.0273 3.81272 11.3908 4.44998L10.9056 5.54373C10.866 5.63478 10.8639 5.73776 10.8996 5.83037C10.9354 5.92298 11.0062 5.99777 11.0968 6.03854L12.0291 6.45286C12.0448 6.61954 12.0518 6.78579 12.0518 6.95686H12.054ZM6.69508 1.42423C7.09102 1.04623 7.6589 1.64079 7.26208 2.01923C6.8679 2.36092 6.33677 1.80267 6.69508 1.42423ZM11.5006 5.29086C11.5445 5.19144 11.626 5.11353 11.7274 5.07423C11.8287 5.03493 11.9415 5.03748 12.0409 5.08129C12.3782 5.22961 12.3664 5.70998 12.0247 5.84254C11.6804 5.97423 11.3501 5.62598 11.5006 5.29086Z" fill="black"/>
</g>
<defs>
<clipPath id="clip0_501_247">
<rect width="14" height="14" fill="white"/>
</clipPath>
</defs>
</svg>
